# xmcd
#
# Track frame offsets:
#	750
#	19253
#	45483
#	72748
#	94415
#	121028
#	141258
#	192483
#	215550
#	351065
#	362993
#
# Disc length: 4847 seconds
#
# Revision: 1
# Processed by: cddbd v1.5.2PL0 Copyright (c) Steve Scherf et al.
# Submitted via: audiograbber 1.83.01
#
DISCID=b312e50b
DTITLE=Dish Hunt - Maybe Home
DYEAR=2002
DGENRE=
TTITLE0=Love Bomb
TTITLE1=V D, D V (Venerial Disease Deo Volente)
TTITLE2=The Late Smell
TTITLE3=Me Today
TTITLE4=I Thought I Was
TTITLE5=Bad Man Is Good News
TTITLE6=Les Gueules Noires
TTITLE7=Sorti De La Chocolaterie Sombre
TTITLE8=The Happy Farmer's Wife
TTITLE9=(untitled)
TTITLE10=Data Track
EXTD=
EXTT0=
EXTT1=
EXTT2=
EXTT3=
EXTT4=
EXTT5=
EXTT6=
EXTT7=
EXTT8=
EXTT9=
EXTT10=
PLAYORDER=
